Coordinates
version=1
nRows=17
nColumns=36
inDegrees=yes

Units are S.I. units (second, meters, Newtons, ...)
If the header above contains a line with 'inDegrees', this indicates whether rotational values are in degrees (yes) or radians (no).

endheader
time	pelvis_tilt	pelvis_list	pelvis_rotation	pelvis_tx	pelvis_ty	pelvis_tz	hip_flexion_r	hip_adduction_r	hip_rotation_r	knee_angle_r	knee_angle_r_beta	ankle_angle_r	subtalar_angle_r	mtp_angle_r	hip_flexion_l	hip_adduction_l	hip_rotation_l	knee_angle_l	knee_angle_l_beta	ankle_angle_l	subtalar_angle_l	mtp_angle_l	lumbar_extension	lumbar_bending	lumbar_rotation	arm_flex_r	arm_add_r	arm_rot_r	elbow_flex_r	pro_sup_r	arm_flex_l	arm_add_l	arm_rot_l	elbow_flex_l	pro_sup_l
      4.88333330	     -5.28513849	     -2.84875779	      4.21995581	      1.02627522	      0.90554181	      0.05512992	     55.79283604	     -7.21334435	     -0.40413700	     26.67106845	      0.46549796	    -13.74611837	      1.98643263	     -7.49999987	     34.83666645	      5.01015058	      0.44823759	     46.64210848	      0.81405836	     11.48463880	    -16.32150871	     -7.49999987	    -25.80675804	     -3.03887429	     -2.57707709	     60.97727109	      2.91307314	     67.15935767	    121.98258781	     95.60918258	     70.10757693	    -14.91388436	     58.16836482	    127.18762536	     94.11731355
      4.90000000	     -5.90397658	     -3.12302651	      4.47467774	      1.02700811	      0.89930083	      0.05491784	     56.34852543	     -7.24536429	     -0.42678558	     26.45857127	      0.46178918	    -13.70247977	      2.27505504	     -7.49999987	     36.15103586	      4.74840960	      0.48686183	     47.54300788	      0.82978202	     12.10177924	    -15.57070342	     -7.49999987	    -25.97845705	     -2.90914859	     -2.62112450	     61.86269723	      3.65055226	     68.56823674	    122.05756160	     93.68504352	     71.13204387	    -15.15478673	     58.11919643	    126.07485025	     92.04978876
      4.91666670	     -6.15757007	     -3.19830027	      5.17520349	      1.02129744	      0.89841540	      0.05666799	     56.39618885	     -7.71216156	     -0.36636604	     26.17794604	      0.45689135	    -13.24820488	      3.14847895	     -7.49999987	     37.16510463	      4.90811346	      0.81293859	     48.26525335	      0.84238759	     12.00856879	    -15.06712620	     -7.49999987	    -26.67864006	     -3.02386027	     -2.74704020	     62.63287292	      3.58331001	     69.50184862	    121.61828293	     93.91213667	     71.72980866	    -15.30070553	     58.50553118	    124.84497290	     92.13036175
      4.93333330	     -6.64028994	     -3.49409449	      5.49396761	      1.02297213	      0.89444382	      0.05607476	     56.36501975	     -7.77720498	     -0.16630745	     25.80445906	      0.45037277	    -12.45640956	      3.66616031	     -7.49999987	     38.13115773	      4.72516458	      1.18593497	     48.99615735	      0.85514427	     12.12528936	    -14.32319721	     -7.49999987	    -27.09852411	     -3.10951532	     -2.35020587	     63.01849733	      3.23825155	     69.99020494	    121.55980156	     95.90082234	     72.43013802	    -14.77521426	     59.65926611	    123.42705382	     92.30081447
      4.95000000	     -7.23307884	     -3.69661112	      5.58446868	      1.02359942	      0.89339342	      0.05580972	     56.66078969	     -7.80790856	      0.11320799	     25.88413282	      0.45176334	    -12.16704011	      3.48604987	     -7.49999987	     39.14022757	      4.70676055	      1.48110248	     49.72089415	      0.86779331	     12.38485971	    -13.63904758	     -7.49999987	    -27.54546637	     -2.98074345	     -1.93420671	     63.54496858	      3.28967211	     70.91106321	    121.70398852	     94.22741985	     72.41960384	    -14.63568812	     60.11907201	    122.88947295	     90.86372907
      4.96666670	     -7.61705839	     -3.84301525	      5.92157142	      1.01851380	      0.88929011	      0.05853905	     57.12323302	     -8.00007922	      0.49501325	     26.26023048	      0.45832748	    -12.29065186	      3.26863640	     -7.49999987	     40.30775218	      4.82475552	      1.91132842	     50.69125999	      0.88472939	     12.28686076	    -13.50876471	     -7.49999987	    -28.25030229	     -2.87096491	     -1.85745962	     64.69070548	      3.36373302	     70.53879590	    121.57592827	     94.28520223	     73.21738010	    -14.32956208	     60.04857160	    122.78430315	     90.92183140
      4.98333330	     -8.12515788	     -4.09975486	      5.96338850	      1.02368745	      0.88338960	      0.05570986	     57.50166737	     -7.98713366	      0.99590046	     26.23308921	      0.45785378	    -12.69995940	      2.20179880	     -7.49999987	     41.39837623	      4.82400976	      2.35740610	     51.78464662	      0.90381259	     12.76250817	    -13.04488299	     -7.49999987	    -28.34694980	     -2.67441241	     -1.44402487	     65.31861087	      3.02078117	     71.61728243	    122.74697642	     94.50800214	     73.40853877	    -13.81467226	     60.67690677	    122.46106715	     91.15845084
      5.00000000	     -8.51328885	     -4.43443903	      6.18251649	      1.02366515	      0.88037523	      0.06232746	     57.88685689	     -7.72848585	      1.82740532	     26.45564603	      0.46173813	    -12.82176020	      1.24090512	     -7.49999987	     42.35336835	      4.66195861	      2.90562449	     52.77083158	      0.92102476	     13.42157722	    -13.06773285	     -7.49999987	    -28.66813416	     -2.83368879	     -0.75570320	     65.28901923	      2.67003195	     70.90731012	    123.04495806	     97.15719948	     73.69726495	    -12.96871102	     61.15690722	    122.18014115	     94.48459801
      5.01666670	     -8.57089938	     -4.52525322	      6.31134428	      1.01671919	      0.87438900	      0.05802956	     58.58431983	     -7.78035047	      2.42675596	     27.21285585	      0.47495393	    -13.06464505	      0.81013446	     -7.49999987	     43.42218925	      4.77757668	      3.17340043	     54.06463303	      0.94360586	     13.69776374	    -13.21643053	     -7.49999987	    -29.55267386	     -2.75485080	     -0.66328655	     65.91170154	      2.02431525	     70.91774906	    122.54834136	     97.12589998	     74.34044139	    -12.63629830	     60.74998805	    121.86435367	     94.46354861
      5.03333330	     -8.95738410	     -4.57031148	      6.30125855	      1.01599655	      0.86552746	      0.05885825	     59.75341489	     -7.68128213	      3.44841187	     28.01772671	      0.48900158	    -13.44352972	     -0.26201143	     -7.49999987	     44.95805660	      4.81358726	      3.19554709	     55.62392075	      0.97082056	     14.28141106	    -13.11816948	     -7.49999987	    -29.78647229	     -3.16012565	     -0.12717054	     66.71723693	      0.75074084	     69.08818155	    122.61508626	     95.50745198	     75.65740156	    -11.24172835	     60.83010226	    120.98449448	     93.35625502
      5.05000000	     -9.28973939	     -4.72744476	      6.25713183	      1.02029059	      0.86643443	      0.06261731	     60.24162041	     -7.44225835	      3.92702649	     28.08575302	      0.49018886	    -13.60793801	     -1.00427142	     -7.49999987	     45.73219496	      4.60268729	      3.27645489	     56.48467252	      0.98584351	     14.77705225	    -12.89130996	     -7.49999987	    -30.09798051	     -3.25041419	      0.19215336	     66.69102612	      0.57766382	     69.41415094	    122.34997666	     95.54954969	     75.72678477	    -11.14570254	     61.15445378	    121.16920202	     93.49785513
      5.06666670	     -9.68620004	     -4.46555965	      6.45053318	      1.01546689	      0.86245143	      0.05951569	     61.06162418	     -7.84943961	      4.26722035	     28.65263908	      0.50008289	    -13.55360193	     -0.95432016	     -7.49999987	     46.54026114	      4.99125371	      3.09821114	     57.03186527	      0.99539383	     14.79239681	    -12.84073973	     -7.49999987	    -30.65742383	     -3.42049575	      0.00792461	     67.17187353	      0.29226033	     68.77151172	    122.60401839	     95.50023732	     76.54998205	    -11.15934997	     61.55932282	    121.90013870	     93.65535398
      5.08333330	    -10.37452243	     -4.46744642	      6.53885569	      1.01372396	      0.85391099	      0.06459291	     62.31597107	     -7.92153762	      4.58472739	     29.19472845	      0.50954414	    -13.51047355	     -1.15293296	     -7.49999987	     47.87629261	      5.13694294	      3.27967657	     57.73610566	      1.00768514	     15.18484516	    -12.74434129	     -7.49999987	    -30.60377083	     -3.55645086	     -0.03464660	     67.60096533	      0.30847664	     68.12874313	    122.61134542	     93.24552477	     77.14702714	    -11.37746696	     61.50805654	    121.84320856	     91.67728605
      5.10000000	    -10.59710798	     -4.45699756	      6.47945860	      1.01942688	      0.85454099	      0.06237783	     62.55498455	     -7.91234678	      4.63620297	     29.07778073	      0.50750301	    -13.46964565	     -1.16396252	     -7.49999987	     47.94839755	      5.24178918	      3.45308785	     57.78647567	      1.00856426	     15.26223016	    -12.72463576	     -7.49999987	    -31.02955740	     -3.69106105	      0.01451651	     67.54333095	      0.26303672	     68.14015561	    122.54866530	     93.25103123	     76.99992521	    -11.43539301	     61.64461630	    121.88181571	     91.69392079
      5.11666670	    -11.57517014	     -3.83682522	      6.74552233	      1.00772324	      0.85219525	      0.06098167	     64.13663383	     -8.57492812	      5.30406214	     29.45446140	      0.51407733	    -13.79522509	     -0.91680879	     -7.49999987	     49.39193597	      6.25191262	      3.26014602	     57.94118239	      1.01126441	     14.95667517	    -12.86483912	     -7.49999987	    -31.39066028	     -4.19717298	     -0.33853691	     67.85085744	     -0.48104215	     67.96188043	    122.24712371	     93.30420913	     77.69255274	    -11.70562272	     62.91770091	    122.65690724	     92.02130795
      5.13333330	    -12.00367015	     -3.69334932	      6.82040038	      1.00815903	      0.84865827	      0.06166390	     64.89735381	     -8.74134728	      5.51099554	     29.43274550	      0.51369832	    -13.81775615	     -0.52722115	     -7.49999987	     50.28443698	      6.66895062	      3.38297569	     58.33346276	      1.01811099	     14.78732327	    -12.93145021	     -7.49999987	    -31.94332384	     -4.26213999	     -0.44005840	     68.34285073	     -0.84636000	     67.89783233	    122.00450909	     92.91964556	     78.54991999	    -11.68595955	     62.29305166	    122.53339069	     91.61038022
      5.15000000	    -12.48360420	     -3.27623456	      6.81643057	      1.00762361	      0.84494609	      0.06145482	     65.78257236	     -9.03543391	      5.72878700	     29.50735638	      0.51500052	    -13.60048908	      0.17099298	     -7.49999987	     51.12922024	      7.31345687	      3.39208387	     58.74776972	      1.02534201	     14.46466137	    -13.42167483	     -7.49999987	    -32.44174370	     -4.43789328	     -0.68015899	     69.15025353	     -1.88235403	     67.58476960	    122.72302861	     92.94778112	     79.25133912	    -11.44502420	     62.62254021	    123.55099350	     91.73967938
